# xmcd CD database file
#
# Track frame offsets:
#	150
#	22517
#	45527
#	57760
#	64747
#	119052
#	130940
#	149020
#	183142
#	200767
#	234912
#
# Disc length: 3345 seconds
#
# Revision: 0
# Processed by: cddbd v1.5.2PL0 Copyright (c) Steve Scherf et al.
# Submitted via: CDex 1.70beta2
#
DISCID=980d0f0b
DTITLE=Zu - Nobukazu Takemura - Identification with the Enemy: A Key to the Underworld
DYEAR=2006
DGENRE=Jazz
TTITLE0=Alone with the Alone
TTITLE1=The Culprit
TTITLE2=Standing on this Zero Spot
TTITLE3=New Buddhas in Stock
TTITLE4=Usual Conversations with Yama
TTITLE5=Awake in the Next Room
TTITLE6=Everyone Gets His Own Nemesis
TTITLE7=Deliver Me from the Book of Self
TTITLE8=Psychopomp
TTITLE9=Hecate, A Rumination
TTITLE10=We are All Returning
EXTD=YEAR: 2006
EXTT0=
EXTT1=
EXTT2=
EXTT3=
EXTT4=
EXTT5=
EXTT6=
EXTT7=
EXTT8=
EXTT9=
EXTT10=
PLAYORDER=
